<?xml version="1.0" encoding="utf-8"?>
<!DOCTYPE svg PUBLIC "-//W3C//DTD SVG 20010904//EN" "http://www.w3.org/TR/2001/REC-SVG-20010904/DTD/svg10.dtd">
<svg version="1.0" xmlns="http://www.w3.org/2000/svg" width="5850px" height="2598px" viewBox="0 0 5850 2598" preserveAspectRatio="xMidYMid meet">
 <g fill="#ffffff">
  <path d="M4283.2 2396.9 c-243.6 -22.6 -473.9 -90.4 -713.2 -210.5 -41.7 -20.7 -95.5 -49.1 -119.3 -63.1 l-42.9 -24.9 5.5 15.6 c8.2 23.4 4.3 60 -9.4 86.1 -12.9 26.1 -45.6 58.1 -70.5 69 -65.9 29.2 -152.4 -2.7 -206.6 -76 -9 -12.9 -16.8 -20.3 -16.8 -16.8 0 10.1 -11.3 7 -14 -3.5 -3.1 -12.9 0.4 -16.4 8.6 -9.4 6.2 5.1 6.2 4.7 0 -7 -3.5 -7 -7 -12.9 -8.2 -12.9 -1.6 0 -46.8 19.5 -83.4 35.9 -9.4 4.3 -42.5 17.9 -74.1 30 -31.2 12.5 -63.9 25.7 -72.5 29.2 -14.4 5.8 -14.8 6.2 -2.7 3.9 9.4 -1.6 12.5 -0.8 12.5 3.5 0 6.2 -55.3 22.2 -105.2 30.8 -41.3 7 -238.1 6.6 -276.7 -0.4 -72.1 -12.9 -203.1 -48.3 -267.8 -72.9 -18.7 -7 -24.2 -19.9 -6.6 -15.6 9.4 2.3 9 1.9 -3.9 -9.7 -7.8 -6.6 -14 -14.8 -14 -17.9 0 -5.1 -1.2 -5.1 -5.8 -1.2 -3.1 2.7 -5.8 7.4 -5.8 10.1 0 8.6 -9.4 6.2 -13.6 -3.1 -5.1 -11.3 -7.8 -10.9 -49.5 6.6 -53.8 22.2 -88.1 29.2 -151.2 32 -63.9 2.7 -96.3 -1.6 -134.9 -17.1 -30.4 -12.1 -44.4 -22.6 -44.4 -33.1 0 -7.8 0.4 -7.8 10.5 -1.2 l10.9 7 -9.7 -10.9 c-5.5 -5.8 -14.8 -14 -21.4 -18.7 l-11.7 -8.2 9.7 10.9 9.7 10.9 -11.7 -1.6 c-8.2 -0.8 -14 -5.1 -19.5 -13.6 -6.2 -9.7 -11.3 -12.9 -25.3 -15.2 -23.4 -3.5 -219.8 1.2 -341 8.6 -119.3 7 -903.8 14.4 -949 9 -46.8 -5.8 -63.5 -12.9 -85.4 -37 -20.3 -22.2 -26.9 -39.4 -22.2 -58.5 3.9 -14.8 32.7 -41.7 58.5 -54.2 19.1 -9.4 22.2 -12.1 20.3 -19.1 -20.3 -71.3 -24.9 -202.3 -10.5 -284.9 40.1 -226.8 190.6 -408.8 367.1 -444.7 150.8 -30.4 307.1 67.4 332.4 207.7 3.1 16.8 5.8 28.1 5.8 24.9 0.8 -12.9 20.3 -31.2 42.1 -39.4 32 -12.1 95.5 -9.7 137.2 5.1 125.5 44.4 226.8 176.6 250.2 327.8 2.3 15.2 3.5 44.8 2.3 65.9 l-1.9 38.2 13.3 -15.6 c28.8 -33.5 85 -47.5 138 -33.9 25.3 6.6 64.3 26.1 89.6 44.8 l13.6 9.7 -16.4 -18.7 c-31.6 -36.2 -53.4 -87.7 -65.9 -156.3 -9.7 -53.4 -9.7 -176.6 0 -239.7 29.2 -189.8 112.2 -386.2 228 -537.8 30 -39 105.2 -115.4 139.5 -141.5 76.4 -58.1 155.9 -94.7 258 -118.9 41.3 -9.7 51.8 -10.5 125.1 -10.5 70.5 0 84.2 1.2 118.9 9.4 21.4 5.1 45.6 11.7 53.4 14.4 l14.4 5.1 -5.8 -16.4 c-8.6 -23.8 -11.3 -75.6 -5.8 -104.1 19.5 -97.8 93.5 -195.6 202.7 -268.1 45.2 -29.6 113 -61.2 159 -73.7 33.1 -9.4 45.2 -10.5 92.8 -10.5 47.9 0 58.1 1.2 84.6 10.1 16.4 5.5 41.7 16.4 56.5 24.6 30.4 17.1 70.9 56.5 83.4 80.7 4.7 9.4 9 17.5 9.7 18.3 0.4 0.4 8.6 -6.2 17.9 -15.2 45.2 -44 127.4 -57.3 194.1 -31.2 62 24.6 121.2 87.7 162.5 173.4 l15.2 31.2 17.9 -6.6 c40.5 -14.8 79.5 -19.9 141.1 -17.5 66.6 2.3 106 11.3 160.2 35.9 67 30.8 144.6 93.5 182.4 148.9 24.9 35.5 56.9 107.6 57.7 129 0 3.5 4.7 -3.1 10.1 -14.8 12.5 -26.1 61.2 -75.6 88.9 -90.4 103.7 -55.3 216.3 -50.7 416.6 16.8 264.6 89.3 458.3 224.1 583.4 406.9 49.1 71.3 90.4 159.4 108.3 229.9 20.3 81.5 21.8 91.2 21.8 171.5 0 67.4 -1.2 83.4 -9 118.5 -37 165.6 -126.3 292.3 -257.6 367.1 l-37 21 37 3.9 c20.3 2.3 39 5.5 41.3 7 7.4 4.7 14 31.6 11.3 46.4 -5.8 30.8 -36.6 71.7 -73.7 97.8 -40.9 28.5 -99.8 63.1 -153.2 90 -28.1 14 -52.2 25.7 -53.8 25.7 -1.2 0 -9.7 3.5 -19.1 7.8 -100.2 46 -245.1 84.2 -392.5 103.7 -56.5 7.4 -260.7 10.9 -319.6 5.5z m5.8 -109.1 c32.3 -2.3 92.4 -8.2 133.3 -13.6 41.3 -5.5 81.5 -9.7 89.6 -9.7 28.5 0 35.5 -23.4 11.3 -36.6 -40.1 -21.4 -47.5 -103.7 -15.6 -168.8 16 -32.3 60 -81.8 92.8 -104.5 12.1 -8.2 21.8 -16.8 21.8 -19.5 0 -4.7 52.2 -24.6 93.5 -35.9 21 -5.8 40.9 -7 113 -6.6 85 0 88.9 0.4 118.1 10.5 35.9 12.5 55 24.2 79.1 47.5 22.2 21.8 32.3 44.8 32.7 71.3 0 10.9 1.6 20.3 3.1 20.3 4.7 0 47.9 -28.1 70.2 -45.6 84.2 -66.6 152.4 -171.1 193.7 -295.4 17.1 -52.2 40.5 -159.4 49.1 -225.7 9.7 -77.2 -10.9 -178.9 -55 -269.3 -34.7 -70.5 -62.4 -110.7 -114.6 -164.9 -25.3 -26.5 -96.3 -86.5 -102.1 -86.5 -1.2 0 -7.4 -3.9 -14 -8.2 -17.5 -12.5 -54.2 -32 -102.5 -54.6 -18.3 -8.2 -100.2 -35.1 -102.1 -33.1 -0.8 0.4 3.5 14.4 9 31.2 23.8 73.7 33.5 149.7 33.5 267.4 0.4 69 -1.2 90.8 -7.8 124.7 -9.7 50.7 -16 74.4 -19.9 79.9 -1.9 1.9 -4.3 8.6 -5.8 14.4 -1.2 5.8 -4.7 12.9 -7.4 15.6 -2.3 2.7 -9 13.6 -14.4 24.2 -5.5 10.1 -12.1 19.5 -14.4 20.7 -2.7 1.2 -5.1 4.3 -5.1 7 0 3.1 -2.3 7.8 -4.7 10.5 -2.7 2.7 -9 13.3 -13.6 23.8 -8.2 17.1 -9.7 18.3 -24.2 18.3 -14.8 0 -15.2 -0.4 -23 -22.2 -4.7 -12.5 -14 -31.2 -20.7 -42.1 -14 -22.2 -59.6 -67.8 -76.4 -76 -5.8 -3.1 -14.4 -8.6 -18.7 -12.1 -4.3 -3.5 -12.1 -7.4 -17.5 -8.6 -5.5 -1.2 -21.8 -5.8 -37 -10.5 -17.5 -5.5 -39 -8.6 -60.4 -8.6 -101.7 -1.6 -216.3 86.1 -268.1 205.4 -10.9 25.3 -12.9 27.3 -24.9 28.5 -11.3 0.8 -14 -0.8 -21.4 -14 -4.7 -8.2 -19.9 -27.3 -34.3 -42.9 -14.4 -15.2 -33.1 -37 -41.7 -48.3 -9 -11.3 -24.9 -30 -35.9 -41.3 -21 -22.2 -93.1 -82.6 -98.6 -82.6 -1.6 0 -12.5 -7 -23.8 -15.6 -11.3 -8.6 -22.2 -15.6 -24.2 -15.6 -1.9 0 -15.2 -5.5 -29.6 -12.1 -36.6 -17.1 -73.3 -28.8 -119.7 -39.4 -55.7 -12.1 -142.3 -12.1 -189.4 0 -17.9 4.7 -37.8 8.6 -43.7 8.6 -6.2 0 -11.3 1.6 -11.3 3.5 0 1.9 -3.9 4.7 -8.6 6.2 -5.1 1.2 -12.5 3.9 -16.8 5.8 -4.3 1.9 -15.2 5.5 -24.2 7.8 -10.1 2.3 -16.8 6.6 -16.8 9.7 0 3.1 -3.5 5.8 -7.8 5.8 -4.3 0 -7.8 1.9 -7.8 3.9 0 2.3 -4.3 3.9 -9.7 3.9 -5.5 0 -9.7 1.9 -9.7 3.9 0 2.3 -2.7 3.9 -5.8 3.9 -3.1 0 -5.8 2.3 -5.8 5.5 0 6.2 -16.4 17.9 -25.3 17.9 -3.1 0 -5.8 2.3 -5.8 5.1 0 3.1 -14 19.1 -31.2 35.5 -17.1 16.8 -31.2 32 -31.2 33.9 0 1.9 -2.7 4.7 -5.8 5.8 -3.1 1.6 -5.8 4.7 -5.8 7.4 0 2.3 -4.3 9.4 -9.4 14.8 -5.5 5.8 -10.5 14 -12.1 18.3 -1.2 4.3 -3.9 7.8 -5.5 7.8 -3.1 0 -6.6 7.4 -36.6 77.9 -30 69.4 -34.7 88.9 -37 151.2 l-1.9 55.3 -11.3 0 c-6.2 0 -22.2 -3.9 -35.5 -8.2 -84.2 -28.8 -177.7 14.4 -205.4 95.5 -9 27.3 -10.1 41.3 -2.3 41.3 3.5 0 5.8 7 7.4 21.8 4.7 44.4 33.9 87.3 81.8 120 26.9 17.9 95.9 47.2 125.5 52.6 42.9 7.8 103.3 -13.3 142.6 -50.3 23 -21.4 35.1 -24.6 50.7 -12.5 91.2 70.5 329.7 201.1 430.3 236.2 134.5 46.8 275.2 63.5 436.5 53z m-1612.7 -95.9 c46.4 -7 88.9 -18.3 143.4 -38.6 21.4 -7.8 47.9 -15.2 58.5 -16 71.7 -5.8 113.8 -15.2 159 -36.6 31.6 -14.8 37.8 -28.1 22.2 -49.1 -9.7 -13.3 -14 -13.6 -39.8 -5.8 -40.1 12.9 -80.7 17.1 -132.5 14.8 -71.3 -3.1 -114.6 -17.1 -160.2 -52.2 -38.2 -29.2 -63.9 -70.2 -77.2 -120.8 -10.5 -41.3 -10.1 -125.9 0.4 -174.2 15.2 -68.2 44 -133.3 91.2 -204.2 l29.2 -44 -19.1 17.1 c-76.4 68.6 -137.6 156.3 -162.9 233.1 -12.1 37.4 -10.1 36.6 -97.8 36.6 -55.7 -0.4 -86.5 -2.3 -113.4 -7.4 -116.1 -21.4 -217.5 -56.9 -276.7 -97 -29.6 -20.3 -76.8 -62.7 -97.4 -88.1 -50.3 -62.4 -86.5 -153.2 -97 -244 -9.7 -83 -20.3 -116.1 -35.5 -112.2 -4.3 1.2 -7.8 3.9 -7.8 6.6 0 2.3 -5.8 10.5 -12.9 18.3 -6.6 7.4 -14.8 18.3 -17.9 24.2 -3.1 5.8 -7 10.5 -9 10.5 -1.6 0 -3.1 2.3 -3.1 5.1 0 3.1 -3.5 9.4 -7.8 14.4 -4.3 5.1 -7.8 11.3 -7.8 14.4 0 2.7 -1.6 8.2 -3.9 12.1 -1.9 3.5 -8.2 20.7 -13.3 37.8 -34.7 111.1 -22.6 265.8 30 381.9 13.3 29.6 15.2 32 42.1 62 10.1 10.9 25.7 28.8 35.1 40.1 l17.1 20.3 3.1 -11.3 c4.3 -16.4 27.7 -38.2 53 -49.5 26.5 -12.1 76.4 -16 114.6 -9.4 77.9 13.6 162.5 55 189.8 92.8 5.5 7.4 11.7 15.6 14.4 18.3 9.7 10.9 16.8 42.5 16.8 76.8 0 29.6 -1.6 38.6 -9.7 56.1 -5.5 11.3 -12.5 22.6 -15.6 25.3 -5.1 4.3 -3.5 7.4 10.5 23 60.4 66.3 164.1 115 266.2 124.7 39.4 3.9 64.3 2.7 121.6 -5.8z m-1590.9 -126.3 c146.5 -14.4 212 -28.1 264.6 -55.7 82.6 -43.3 128.2 -134.1 115.4 -229.2 -12.5 -91.2 -51.8 -176.6 -107.2 -231.9 -33.9 -33.9 -58.5 -47.9 -97.4 -56.1 -26.9 -5.5 -32.7 -1.6 -19.1 12.9 42.5 46 47.5 150.4 10.5 222.9 -12.9 25.3 -53.4 72.1 -62.4 72.1 -2.7 0 -5.1 2.7 -5.1 5.8 0 3.1 1.6 5.8 3.1 5.8 10.1 0 17.9 58.5 8.6 64.3 -1.9 1.2 -3.9 5.8 -3.9 10.1 0 4.3 -2.7 8.6 -5.8 9.7 -3.1 1.6 -5.8 4.3 -5.8 6.6 0 7 -12.5 18.3 -20.3 18.3 -3.9 0 -7 2.7 -7 5.8 0 3.1 -3.5 5.8 -7.8 5.8 -4.3 0 -7.8 1.6 -7.8 3.5 0 1.9 -4.3 4.7 -9.7 5.8 -5.5 1.6 -9.7 4.7 -9.7 7.8 0 6.2 -16.4 14 -29.6 14 -5.5 0 -12.5 2.3 -15.6 5.5 -6.6 7 -56.9 12.1 -90.8 9 -62.7 -5.5 -104.1 -35.9 -125.1 -91.2 -7 -17.9 -9 -31.2 -9 -62 l0 -39 -19.9 5.5 c-28.8 7.8 -99 10.5 -127.8 4.7 -41.3 -8.2 -69.8 -23.4 -101.7 -55.3 -47.5 -47.5 -66.6 -97.4 -66.3 -174.6 0 -35.5 1.9 -49.5 8.2 -67 7.8 -21.8 7.8 -22.2 0.4 -17.5 -3.9 2.3 -7.4 6.2 -7.4 7.8 0 1.9 -5.5 11.3 -12.5 21.4 -16.8 24.6 -42.1 70.9 -42.1 77.2 0 3.1 -1.2 5.5 -2.7 5.5 -8.2 0 -32.3 105.6 -32.3 140.7 0 36.2 11.3 89.3 26.1 124.3 8.2 18.3 16 35.1 17.5 37 1.6 2.3 10.9 14.8 20.7 28.1 60.8 82.6 175 134.1 329.7 149.3 50.3 4.7 149.3 1.6 247.1 -7.8z m825.9 -963.4 c3.1 -5.1 11.3 -23 17.9 -40.1 6.2 -17.1 23 -53.8 36.6 -81.8 l24.6 -50.3 -21 22.6 c-30.8 33.1 -49.9 58.1 -67.8 88.9 -24.6 42.1 -27.7 51.1 -20.7 60.8 7.8 11.3 23 10.9 30.4 0z m2079.3 -156.7 c7.4 -9 3.1 -20.7 -21.4 -61.6 -29.6 -49.9 -47.5 -72.1 -89.3 -111.5 -96.3 -90.8 -228.8 -133.3 -349.2 -111.5 l-40.5 7.4 58.5 2.7 c77.9 3.1 129.4 15.2 187.5 43.7 92.8 45.2 168.8 118.5 212 205 19.9 40.1 26.9 44.4 42.5 25.7z m761.9 -134.5 c6.6 -7 10.1 -14 9 -17.5 -3.5 -8.6 -42.5 -27.3 -78.7 -37.8 -24.2 -7 -41.3 -9 -76 -9 -49.5 -0.4 -73.7 4.3 -115 22.2 -32.3 14 -40.1 19.5 -21.4 15.6 7.4 -1.9 44.4 -3.1 81.8 -2.7 74.4 0 97.4 4.3 153.9 28.5 15.2 6.2 29.2 11.7 31.6 11.7 1.9 0.4 9 -4.7 14.8 -10.9z m-2080.8 -109.1 c52.2 -55 128.2 -104.8 193.3 -126.7 47.2 -16 85.4 -21.8 143.8 -21.8 95.5 0 151.6 15.6 233.5 65.5 l28.8 17.5 7.4 -8.6 c9.4 -12.1 4.7 -19.9 -23 -36.6 -145.4 -87.3 -276.3 -95.9 -420.9 -27.7 -73.7 35.1 -153.6 104.5 -203.1 177.3 -16.8 24.9 -17.1 24.9 -2.3 7.4 8.2 -9.7 27.3 -30.4 42.5 -46.4z"/>
  <path d="M4275.4 1594 c0 -15.2 0.4 -15.6 13.6 -15.6 13.3 0 13.6 0.4 13.6 15.6 0 15.2 -0.4 15.6 -13.6 15.6 -13.3 0 -13.6 -0.4 -13.6 -15.6z"/>
 </g>
 <g fill="#c5e4f0">
  <path d="M4028 2256.6 c-97.8 -9 -179.7 -25.7 -262.7 -55 -24.9 -8.6 -49.9 -16.4 -55.3 -16.8 -28.8 -3.9 -229.2 -120.4 -298.5 -173.8 -8.2 -6.6 -9 -6.2 -28.8 12.5 -50.7 47.5 -129 65.1 -192.5 42.5 -71.3 -25.3 -118.9 -54.2 -146.5 -88.9 -8.6 -10.1 -16.8 -20.7 -18.7 -23 -2.3 -2.7 -2.7 -5.8 -1.6 -7 1.6 -1.2 0.8 -2.3 -1.2 -2.3 -1.9 0 -4.3 -3.9 -4.3 -8.6 -0.4 -5.1 -2.3 -9.4 -4.3 -10.1 -2.3 -0.8 -3.1 -4.7 -1.9 -8.6 1.2 -4.3 0.4 -7.8 -1.6 -7.8 -1.9 0 -2.7 -7 -1.9 -15.6 1.2 -12.1 0.4 -15.6 -3.5 -14.8 -3.9 0.8 -5.8 -5.1 -6.6 -21.8 -1.2 -19.5 0.8 -26.9 10.9 -47.5 23.8 -48.7 65.1 -69.8 136.4 -69.4 45.6 0 77.6 7 115.8 24.9 13.6 6.2 25.3 9.7 26.5 7.8 1.2 -1.9 -0.4 -18.7 -3.9 -37.4 -12.1 -69.8 -6.2 -149.3 16 -214 7.4 -21 12.5 -40.9 11.7 -43.7 -1.2 -2.7 -0.4 -5.1 1.9 -5.1 2.3 0 2.7 -1.6 1.6 -3.9 -1.2 -1.9 -0.4 -3.9 1.9 -3.9 2.3 0 3.1 -1.6 1.9 -3.9 -1.2 -1.9 -0.4 -3.9 1.9 -3.9 2.3 0 3.1 -1.6 1.9 -3.9 -1.2 -1.9 -0.4 -3.9 1.9 -3.9 2.3 0 3.1 -1.6 1.9 -3.9 -1.2 -1.9 0 -3.9 3.1 -3.9 6.2 0 11.7 -10.5 8.2 -16 -1.2 -1.9 0.4 -3.5 3.5 -3.5 6.6 0 19.5 -18.3 16.8 -23 -1.2 -1.9 1.6 -4.3 5.8 -5.5 5.8 -1.6 7.8 -4.3 6.2 -8.2 -1.6 -3.5 -0.4 -6.2 2.3 -6.2 6.2 0 61.2 -55 61.2 -61.2 0 -2.7 2.7 -5.1 5.8 -5.1 9 0 25.3 -11.7 25.3 -17.9 0 -3.1 2.7 -5.5 5.8 -5.5 3.1 0 5.8 -1.6 5.8 -3.9 0 -1.9 4.3 -3.9 9.7 -3.9 6.2 0 9.7 -2.3 9.7 -6.2 0 -4.3 2.3 -5.8 7.8 -4.3 5.1 1.2 7.8 0 7.8 -3.5 0 -3.1 5.1 -6.6 11.7 -7.8 6.6 -1.6 11.7 -4.3 11.7 -6.2 0 -2.3 3.5 -3.1 7.8 -1.9 4.7 1.2 9 -0.4 11.3 -3.9 1.9 -3.9 5.8 -5.5 9.4 -3.9 3.5 1.2 9.4 -0.4 12.5 -3.9 3.5 -3.1 14.4 -6.6 24.2 -7 9.7 -0.8 19.1 -3.5 20.7 -5.8 1.6 -2.7 6.2 -3.5 11.3 -1.9 5.1 1.6 8.2 0.8 8.2 -1.9 0 -2.7 3.1 -3.9 7.8 -2.7 4.3 1.2 7.8 0.4 7.8 -1.6 0 -1.9 7.8 -2.3 17.5 -0.8 9.7 1.2 17.5 0.8 17.5 -1.2 0 -3.9 87.3 -3.5 93.5 0.4 2.3 1.6 9.7 1.9 16.8 1.6 7 -0.8 14.8 0 17.5 1.9 2.7 1.6 7.4 1.9 10.5 0.8 3.1 -1.2 5.8 -0.4 5.8 1.9 0 2.3 3.9 3.5 9 3.1 4.7 -0.8 10.9 0 13.6 1.9 2.7 1.6 6.2 1.9 7.4 0.8 1.2 -1.2 4.7 -0.4 7.8 2.3 2.7 2.3 6.2 3.1 7.8 1.9 1.2 -1.6 4.3 -1.2 6.6 0.8 3.9 3.1 55.7 21.4 61.6 21.8 1.2 0 3.9 1.6 5.5 3.1 3.9 3.9 36.2 18.3 40.9 18.3 1.9 0 12.5 7 23.8 15.6 11.3 8.6 22.2 15.6 23.8 15.6 5.8 0 78.7 61.2 100.2 84.6 54.2 58.1 104.5 133.7 121.2 181.2 l11.3 32.3 0 -18.3 c0 -10.1 1.6 -19.1 3.5 -20.3 1.6 -1.2 4.3 -7.8 5.8 -14.4 1.2 -7 8.6 -27.7 16.4 -46 40.9 -96.3 124.3 -180.1 198.4 -199.2 37.8 -9.7 70.9 -13.3 74.4 -7.4 1.2 2.3 7.8 3.5 14.8 3.1 6.6 -0.4 14.8 0.4 18.3 1.9 3.5 1.6 11.3 3.5 17.5 4.3 6.2 0.8 11.7 1.6 12.5 2.3 0.4 0.4 1.9 0.8 3.9 1.2 1.6 0.4 5.1 1.9 7.8 3.9 2.7 1.6 9.4 3.5 14.8 4.3 5.5 0.4 13.6 4.3 18.3 8.6 4.7 3.9 13.6 9.7 19.5 12.9 16.8 8.2 62.4 53.8 76.4 76 6.6 10.9 16 29.6 20.7 42.1 4.3 12.1 9.4 22.2 11.3 22.2 5.1 0 19.9 -30.8 17.1 -35.1 -1.2 -2.3 0 -3.9 3.1 -3.9 6.2 0 11.7 -10.5 8.2 -16 -1.2 -1.9 0.4 -3.5 3.5 -3.5 7 0 27.7 -33.5 24.2 -39 -1.2 -2.3 0 -3.9 3.1 -3.9 6.2 0 17.1 -22.2 13.3 -26.1 -1.6 -1.2 0 -4.3 3.5 -6.6 3.5 -2.7 6.2 -10.5 6.6 -17.9 0.4 -7.4 3.1 -16 5.8 -19.1 3.1 -3.1 4.7 -10.5 3.9 -16.8 -1.2 -5.8 0 -10.9 1.9 -10.9 1.9 0 2.7 -4.3 1.9 -9.7 -1.2 -5.5 -0.4 -9.7 1.6 -9.7 2.3 0 3.1 -6.2 2.3 -13.6 -0.8 -7.4 0 -13.6 1.6 -13.6 5.1 0 3.5 -37 -1.6 -42.1 -3.5 -3.5 -2.7 -5.1 1.9 -7 5.1 -1.9 6.6 -7.4 6.6 -23.4 0 -11.7 -1.6 -21 -3.5 -21 -4.7 0 -8.2 -15.2 -3.9 -17.9 4.3 -2.7 4.7 -63.9 0 -63.9 -1.6 0 -2.3 -9 -1.2 -19.5 0.8 -10.9 0 -19.5 -1.9 -19.5 -1.9 0 -2.7 -6.2 -1.9 -13.6 0.8 -7.4 0 -13.6 -1.9 -13.6 -1.9 0 -3.1 -5.5 -1.9 -11.7 0.8 -6.6 0 -11.7 -1.6 -11.7 -1.9 0 -3.9 -7.4 -4.3 -16.8 -0.8 -9 -2.7 -16.8 -4.7 -17.5 -1.9 -0.8 -2.7 -4.7 -1.6 -8.6 1.2 -4.3 0.4 -7.8 -1.6 -7.8 -1.9 0 -3.9 -4.7 -4.3 -10.5 -0.4 -6.2 -2.3 -11.3 -4.7 -12.1 -1.9 -0.8 -2.3 -3.9 -1.2 -7 1.2 -3.1 0 -5.5 -2.3 -5.5 -2.3 0 -3.1 -2.7 -1.9 -5.8 1.6 -3.1 0.8 -5.8 -1.2 -5.8 -1.9 0 -3.5 -3.9 -3.9 -8.6 -0.4 -4.3 -3.1 -9.7 -5.8 -11.3 -2.7 -1.9 -3.5 -3.5 -1.9 -3.5 1.6 0 1.2 -3.5 -1.2 -7.4 -2.7 -5.1 -2.7 -8.6 0 -10.1 1.9 -1.2 3.9 -0.4 3.9 1.9 0 2.7 2.7 3.9 5.8 2.7 3.1 -1.6 6.6 -0.4 8.2 1.6 1.2 2.3 5.8 3.5 9.7 2.3 3.9 -1.2 8.6 -0.4 9.7 1.6 1.2 1.9 4.3 3.5 6.6 3.1 2.7 -0.4 9.7 1.2 15.6 3.5 5.8 2.7 12.1 4.3 13.6 4.3 1.6 -0.4 3.9 0 5.8 0.4 1.6 0.4 4.7 1.6 6.6 1.9 2.3 0.4 4.7 1.6 5.8 1.9 1.2 0.4 3.9 1.6 5.8 1.9 2.3 0.4 4.7 1.6 5.8 1.9 1.2 0.4 3.1 1.2 5.1 1.6 1.6 0.4 6.6 2.7 11.7 5.5 4.7 2.7 8.6 3.9 8.6 2.3 0 -1.2 2.7 -0.4 5.8 2.3 7 5.8 44.8 23.8 44.8 21.4 0 -0.8 9.4 4.7 20.3 12.1 11.3 7.4 21.8 13.3 23.8 13.3 1.9 0 9 4.3 16 9.7 7 5.5 14 9.7 15.6 9.7 5.8 0 76.4 59.6 102.1 86.5 52.2 54.2 79.9 94.3 114.6 164.9 46.4 94.7 66.3 200.7 55 292.7 -6.6 51.8 -7.8 56.1 -16.4 56.1 -4.3 0 -7.8 3.5 -9 9 -28.8 150.4 -67.8 241.6 -143.8 336 -47.5 58.9 -146.9 150 -163.3 150 -5.5 0 -7 -3.1 -7 -13.6 0 -7.4 -1.6 -13.6 -3.9 -13.6 -1.9 0 -2.7 -2.3 -1.6 -5.5 1.2 -2.7 -0.8 -7.8 -3.9 -11.3 -3.1 -3.1 -5.1 -6.6 -3.9 -7.8 3.1 -3.1 -34.7 -39.8 -52.6 -51.1 -8.6 -5.5 -29.6 -14.8 -46 -20.7 -28.8 -9.7 -34.3 -10.5 -106.4 -10.5 -82.6 -0.4 -93.5 1.2 -160.6 25.7 -19.5 7 -34.3 14.8 -35.5 18.3 -0.8 3.5 -17.1 14.8 -35.9 24.9 -74.8 40.9 -110.7 79.5 -130.6 140.3 -7.4 23 -5.8 56.5 3.9 80.3 4.3 11.7 7.8 26.5 7 33.1 l-1.2 12.1 -40.9 4.7 c-98.6 10.5 -145.4 13.6 -253.3 14.8 -63.1 0.8 -132.5 0 -153.9 -1.9z m-876.9 -428.3 c-4.3 -4.3 -19.1 -6.2 -31.2 -4.3 -4.3 0.8 1.2 2.3 11.7 3.9 10.9 1.6 20.3 3.1 21.4 3.1 0.8 0.4 0 -0.8 -1.9 -2.7z m877.7 -281.8 c5.1 -4.7 9 -10.9 9 -14 0 -9.7 -37.4 -56.9 -68.6 -86.1 -48.3 -46 -95.1 -72.1 -156.7 -86.5 -56.5 -13.6 -128.6 -6.6 -181.2 17.9 l-20.3 9.4 21.4 -2.7 c33.9 -4.3 104.5 -2.7 134.5 3.1 87.7 16.8 164.5 67 218.6 142.6 19.5 27.3 28.1 30.8 43.3 16.4z"/>
  <path d="M4528 2237.5 c-7 -6.6 -9.7 -27.7 -3.9 -27.7 1.6 0 6.2 2.7 10.1 5.8 3.9 3.1 8.6 4.7 10.1 3.9 1.6 -1.2 5.1 0.8 7.8 3.9 3.5 4.3 3.9 5.8 0.4 5.8 -3.1 0 -3.9 3.1 -2.3 7.8 1.9 6.2 0.8 7.8 -6.6 7.4 -5.1 0 -12.1 -3.1 -15.6 -7z"/>
  <path d="M2527.9 2207.1 c-50.3 -6.2 -90.8 -17.9 -136.8 -40.1 -56.1 -26.9 -95.9 -58.9 -139.1 -112.6 -6.6 -7.8 -6.6 -8.2 0 -8.2 9 0 25.7 -17.5 22.2 -23 -1.2 -2.3 -0.4 -4.3 2.3 -4.3 2.7 0 3.5 -1.2 2.3 -2.7 -1.6 -1.2 0.4 -4.7 4.3 -7.4 5.5 -3.9 6.6 -11.3 6.6 -42.5 0 -20.3 -1.6 -38.6 -3.9 -40.1 -1.9 -1.6 -4.3 -6.2 -5.1 -10.1 -0.8 -3.9 -3.5 -9.7 -5.8 -12.5 -2.7 -2.7 -9 -10.9 -14.4 -18.3 -27.3 -37.8 -111.9 -79.1 -189.4 -92.8 -44.4 -7.8 -86.9 1.2 -118.5 24.6 -14.8 10.9 -28.8 32.7 -24.9 38.6 1.9 3.5 -0.8 3.9 -9.7 2.3 -12.9 -2.7 -68.2 -49.5 -84.2 -71.3 -4.3 -5.8 -9.7 -12.5 -11.7 -14.8 -2.3 -2.3 -6.6 -10.1 -9.4 -16.8 -2.7 -7 -6.6 -12.9 -8.6 -12.9 -1.9 0 -3.1 -1.2 -2.7 -2.7 1.2 -4.7 -9.4 -36.2 -12.1 -36.2 -1.6 0 -3.1 -4.7 -3.5 -10.5 -0.4 -5.8 -1.9 -11.3 -3.9 -12.5 -1.6 -1.2 -3.1 -7.4 -3.9 -14 -0.8 -6.2 -2.7 -12.5 -3.9 -13.6 -1.6 -1.2 -3.1 -8.2 -3.9 -15.6 -0.4 -7.4 -2.3 -14 -4.3 -14.8 -1.6 -0.4 -1.9 -6.2 -1.2 -12.5 0.8 -6.6 0 -11.7 -1.9 -11.7 -1.9 0 -2.7 -6.2 -1.9 -13.6 0.8 -7.4 0 -13.6 -1.6 -13.6 -1.9 0 -2.7 -10.5 -2.3 -23.4 1.2 -17.5 0 -24.9 -4.7 -29.6 -7 -6.6 -8.2 -17.1 -2.3 -17.1 2.3 0 3.9 -5.1 3.9 -11.7 0 -6.2 -1.6 -11.7 -3.9 -11.7 -6.2 0 -4.7 -10.9 2.3 -14.8 5.1 -2.7 5.8 -8.6 4.7 -27.3 -0.4 -13.3 0.4 -24.2 2.3 -24.2 1.6 0 2.3 -6.2 1.6 -13.6 -0.8 -7.4 0 -13.6 1.9 -13.6 1.9 0 2.7 -5.1 1.9 -11.7 -1.2 -6.2 0 -11.7 1.9 -11.7 1.9 0 2.7 -2.7 1.2 -5.8 -1.2 -3.1 0 -5.8 1.9 -5.8 2.3 0 3.5 -3.5 2.3 -7.8 -1.2 -4.3 -0.4 -7.8 1.2 -7.8 4.3 0 12.9 -26.1 10.1 -30.8 -1.2 -1.9 0.4 -4.7 3.9 -5.8 3.9 -1.6 5.5 -5.5 4.3 -10.1 -1.2 -4.3 -0.4 -7.8 1.9 -7.8 1.9 0 2.3 -1.6 1.2 -3.9 -1.2 -1.9 0 -3.9 3.1 -3.9 6.2 0 11.7 -10.5 8.2 -16 -1.2 -1.9 0.4 -3.5 3.1 -3.5 6.2 0 16 -14.4 12.9 -19.5 -1.6 -2.3 0 -3.9 2.7 -3.9 5.5 0 26.5 -24.6 26.5 -30.8 0 -2.3 2.3 -4.3 5.5 -4.3 3.1 0 6.2 -1.9 7 -3.9 0.8 -2.3 6.6 -3.1 14 -1.6 21.4 4.3 29.6 28.8 40.1 116.5 10.5 90.8 46.8 181.6 97 244 20.3 24.9 67.8 67.8 95.9 86.9 18.3 12.5 73.3 41.7 77.6 41.3 1.2 0 7 2.3 13.6 5.8 6.2 3.1 14.4 6.6 18.3 7 3.9 0.8 12.5 3.9 18.7 6.2 6.6 2.7 15.2 5.5 19.5 5.8 4.3 0.8 12.1 3.1 17.5 5.1 9.4 3.9 31.2 9.4 42.9 10.9 3.1 0.4 9 1.9 12.5 3.5 3.5 1.6 8.2 1.9 10.5 0.8 1.9 -1.2 4.3 -0.8 5.1 1.6 0.8 2.3 9 4.7 18.7 5.5 9.7 0.8 20.7 2.7 24.6 4.3 3.5 1.6 9.4 1.9 12.5 0.8 3.1 -1.6 6.6 -0.8 8.2 1.6 1.2 2.3 9 3.5 17.5 3.1 8.2 -0.8 16 0 17.5 1.6 5.1 4.7 87.3 3.1 87.3 -1.6 0 -2.7 4.3 -3.5 12.1 -1.9 8.6 1.6 14 0.4 19.9 -5.5 16.4 -15.2 17.9 -8.6 10.1 45.6 -3.5 25.3 -3.5 39.4 0 65.9 5.5 37.4 26.1 100.6 42.1 130.6 14.8 26.9 71.7 84.2 106.8 107.2 32.7 21 86.5 42.9 124.7 49.9 17.9 3.5 25.7 6.6 26.5 10.9 1.6 8.6 -6.6 12.5 -66.3 32.7 -58.1 19.9 -108 30.8 -168 36.6 -45.6 4.7 -58.5 4.3 -113.4 -2.7z"/>
  <path d="M826.6 2085.1 c-153.2 -14.8 -266.2 -65.5 -328.2 -146.9 -9.4 -12.5 -18.3 -23.4 -20.3 -23.8 -1.6 -0.8 -1.9 -3.1 -0.4 -5.1 1.2 -1.9 0.4 -3.5 -1.2 -3.5 -1.9 0 -5.8 -6.2 -8.6 -13.6 -2.7 -7.4 -6.2 -13.6 -7.8 -13.6 -1.2 0 -2.7 -3.9 -3.1 -8.6 -0.4 -4.3 -2.7 -9.4 -5.1 -10.9 -2.7 -1.6 -4.3 -3.5 -3.9 -4.3 1.6 -3.1 -9.4 -50.3 -11.7 -50.3 -1.2 0 -1.6 -6.2 -0.8 -13.6 0.8 -7.4 0 -13.6 -1.6 -13.6 -3.5 0 -5.1 -78.3 -1.6 -81.8 3.9 -3.5 16 -70.5 13.6 -74.1 -1.6 -2.3 -0.8 -3.9 1.6 -3.9 4.7 0 13.3 -25.7 10.1 -31.2 -1.2 -1.9 0.4 -3.9 4.3 -3.9 4.3 0 5.8 -2.3 4.3 -7.8 -1.2 -4.3 -0.4 -7.8 1.6 -7.8 1.9 0 8.2 -9.4 13.6 -20.3 5.8 -11.3 17.1 -30.8 25.7 -43.3 8.2 -12.1 14 -24.2 12.9 -26.1 -1.2 -2.3 0 -3.9 2.7 -3.9 5.8 0 65.5 -63.5 65.5 -69.8 0 -2.3 3.1 -4.3 7 -4.3 3.9 0 12.5 -5.1 19.5 -11.3 7.8 -7.4 12.5 -9.7 12.5 -6.2 0 3.1 -1.9 6.6 -3.9 7.8 -6.6 3.9 -40.9 56.5 -53.4 81.8 -19.5 39 -26.1 63.5 -25.7 97.4 0.4 63.5 22.2 116.9 65.5 160.2 23.8 23.8 60.4 49.5 60.4 42.5 0 -1.2 4.3 0.8 9.4 3.9 5.1 3.5 15.6 6.6 23.4 7.4 7.8 0.8 15.2 2.3 16.8 3.9 4.7 4.3 63.5 2.7 63.5 -1.9 0 -2.7 3.9 -3.5 9.7 -1.9 5.5 1.6 9.7 0.8 9.7 -1.2 0 -1.9 5.8 -3.5 12.9 -3.5 16.4 0.4 49.5 -14.4 49.5 -22.2 0 -3.1 0.8 -5.8 1.6 -5.8 0.8 0 4.3 -1.2 7.4 -2.3 4.7 -1.6 3.9 3.1 -3.5 21.4 -18.7 46.4 -10.9 106 19.5 145.8 11.7 15.6 48.7 43.7 52.6 39.8 0.8 -1.2 3.9 0 7 2.3 2.7 2.3 5.1 3.1 5.1 1.6 0 -1.6 2.7 -0.8 5.8 1.9 3.1 2.7 8.2 3.9 11.7 2.7 3.1 -1.6 6.6 -0.8 7.8 1.2 3.1 5.5 48.7 5.1 48.7 0 0 -2.7 5.1 -3.1 12.9 -1.9 9.7 1.9 15.2 0.8 19.9 -3.9 3.5 -3.9 11.3 -7 17.1 -7.8 17.1 -1.2 28.1 -5.8 28.1 -11.7 0 -3.1 4.3 -6.6 9.7 -8.2 5.5 -1.2 9.7 -3.9 9.7 -5.8 0 -1.9 3.5 -3.5 7.8 -3.5 4.3 0 7.8 -2.7 7.8 -5.8 0 -3.1 3.1 -5.8 7 -5.8 8.6 0 22.2 -13.6 18.7 -18.7 -1.2 -1.9 1.6 -4.7 5.8 -5.8 6.2 -1.6 7.8 -4.3 6.2 -10.1 -1.2 -4.7 0.4 -8.6 3.5 -9.7 6.6 -2.3 7 -17.9 1.2 -30.8 -4.3 -9.4 -8.2 -12.1 -30.8 -21.4 -9.4 -3.9 -9.4 -4.3 -0.8 -4.3 5.1 -0.4 8.6 -2.7 8.6 -6.2 0 -3.1 2.7 -5.8 6.2 -5.8 3.1 0 4.7 -1.6 3.5 -3.9 -1.2 -1.9 0.8 -3.9 4.7 -3.9 17.9 0 79.9 -84.2 73.7 -99.8 -1.2 -3.1 -0.4 -5.5 1.9 -5.5 2.3 0 3.5 -2.3 2.7 -4.7 -1.2 -2.7 0.8 -7.4 3.9 -10.5 3.5 -3.9 4.7 -10.5 3.5 -20.7 -1.2 -8.2 -0.4 -14.8 1.6 -14.8 1.9 0 3.5 -7 3.5 -15.6 0 -8.6 -1.6 -15.6 -3.1 -15.6 -1.9 0 -2.7 -5.1 -1.6 -11.7 1.2 -7.4 0 -11.7 -2.7 -11.7 -2.7 0 -3.5 -1.9 -2.3 -3.9 5.1 -8.6 -18.3 -48.7 -40.9 -70.9 -21.8 -20.7 -22.6 -21.8 -13.6 -24.2 5.1 -1.2 12.1 -1.2 15.2 0 3.5 1.2 6.2 0.4 6.2 -1.6 0 -4.3 28.5 -3.9 39 0.8 3.1 1.2 11.3 3.1 17.5 3.9 41.7 5.1 106 59.6 138.4 116.9 82.6 147.3 81.5 298.9 -3.1 383.1 -26.9 26.5 -71.3 51.4 -113.8 63.1 -100.6 27.7 -366.7 49.9 -475.1 39.4z"/>
  <path d="M892.5 1735.1 c0 -1.9 4.7 -5.5 10.1 -7.8 5.5 -2.7 9 -3.1 7.4 -0.8 -3.5 5.8 -17.5 12.5 -17.5 8.6z"/>
 </g>
 <g fill="#ecf3f3">
  <path d="M2689.2 2278 c0 -3.1 2.3 -5.8 5.5 -5.8 3.1 0 6.2 -1.9 7 -4.3 2.3 -7.4 22.6 0.4 22.6 8.6 0 6.2 -3.1 7.4 -17.5 7.4 -12.9 0 -17.5 -1.6 -17.5 -5.8z"/>
  <path d="M2537.2 2274.5 c0 -2.7 3.5 -6.2 7.8 -7.4 4.3 -1.2 7.8 -0.4 7.8 1.6 0 1.9 2.7 3.5 5.8 3.5 3.1 0 5.8 1.9 5.8 3.9 0 2.3 -6.2 3.9 -13.6 3.9 -9 0 -13.6 -1.9 -13.6 -5.5z"/>
  <path d="M3237.2 2229.7 c-9.4 -10.1 -6.6 -21 6.6 -25.3 13.6 -5.1 23.8 0.4 25.3 13.3 2.7 17.5 -19.9 25.7 -32 12.1z"/>
  <path d="M4532.7 2227.4 c0 -3.5 2.3 -4.7 5.8 -3.5 3.1 1.6 5.8 3.9 5.8 5.8 0 1.9 -2.7 3.5 -5.8 3.5 -3.1 0 -5.8 -2.7 -5.8 -5.8z"/>
  <path d="M2611.3 2209.8 c0 -1.9 4.7 -3.9 10.9 -3.5 9.4 0 9.7 0.4 2.7 3.5 -10.5 4.7 -13.6 4.7 -13.6 0z"/>
  <path d="M1979.9 2200.5 c0 -3.5 2.3 -6.2 5.5 -6.2 3.1 0 6.2 -1.9 7 -4.3 2.3 -7 23 0.4 21.8 7.8 -1.6 9 -34.3 11.3 -34.3 2.7z"/>
  <path d="M3691.6 2175.9 c-2.7 -3.9 -3.9 -4.7 -2.7 -1.9 3.9 7.8 -1.2 5.5 -5.8 -3.1 -3.9 -7 -3.1 -7.8 7.8 -7.8 9.7 0 11.7 1.6 11.7 9.7 0 11.3 -3.9 12.5 -10.9 3.1z"/>
  <path d="M2794.4 2175.1 c0 -3.5 31.2 -13.6 33.9 -10.9 0.8 1.2 -6.2 4.7 -16 7.8 -10.1 3.5 -17.9 4.7 -17.9 3.1z"/>
  <path d="M2861.9 2147.5 c-1.6 -1.6 -13.6 -4.7 -26.5 -6.6 -37.4 -7 -88.1 -27.3 -121.2 -48.7 -36.2 -23.4 -93.1 -80.3 -108.3 -108 -15.2 -28.1 -35.9 -90.8 -41.3 -126.3 -5.1 -29.6 -3.5 -95.1 2.3 -115.4 1.9 -6.6 1.6 -8.6 -1.6 -6.6 -2.7 1.6 -4.7 1.2 -4.7 -1.2 0 -1.9 1.9 -4.3 4.3 -5.1 2.3 -0.8 7.4 -11.7 11.7 -24.6 12.9 -38.6 44.8 -99.4 69.8 -132.5 12.9 -17.1 40.9 -48.7 62 -70.5 40.5 -41.7 110.7 -97 117.3 -93.1 9 5.5 2.3 18.7 -21.8 45.6 -47.2 52.2 -102.1 145 -125.9 212 -31.6 90 -31.6 193.7 0 255.3 22.2 44 60.4 81.1 104.8 102.1 63.5 30 149.7 33.9 224.9 10.1 42.1 -12.9 61.2 -8.2 71.7 19.1 13.3 34.3 -5.1 53 -74.8 76.8 -34.3 11.7 -134.9 24.2 -142.6 17.5z"/>
  <path d="M4485.9 2137.7 c0 -10.9 1.6 -13.6 7.8 -13.6 6.6 0 7.8 2.3 6.6 13.6 -0.4 10.1 -2.7 13.6 -7.4 13.6 -5.5 0 -7 -3.1 -7 -13.6z"/>
  <path d="M962.7 2085.1 c0 -1.9 4.7 -3.9 10.9 -3.5 9.4 0 9.7 0.4 2.7 3.5 -10.5 4.7 -13.6 4.7 -13.6 0z"/>
  <path d="M420.1 2073 c-14.8 -8.6 -3.1 -23 17.9 -23 12.5 0 20.7 13.3 13.6 21.8 -5.1 6.2 -21.8 7 -31.6 1.2z"/>
  <path d="M1064 1956.9 c0 -3.9 19.5 -9.7 22.2 -7 0.8 1.2 -3.9 3.5 -10.1 5.8 -6.6 2.3 -12.1 2.7 -12.1 1.2z"/>
  <path d="M1106.9 1937.4 c0 -1.9 3.9 -5.1 9 -6.6 4.7 -1.6 9.7 -4.3 10.9 -6.6 1.6 -1.9 4.7 -3.1 7.4 -1.9 2.3 0.8 -2.7 5.5 -11.3 10.1 -9 5.1 -16 7.4 -16 5.1z"/>
  <path d="M4813.3 1898 c0 -1.9 3.5 -3.9 7.4 -3.9 4.3 0 9 1.9 10.1 3.9 1.6 2.3 -1.9 3.9 -7.4 3.9 -5.5 0 -10.1 -1.6 -10.1 -3.9z"/>
  <path d="M1904.7 1870.8 c-1.6 -6.6 0 -7.8 9.4 -7.8 12.9 0 14.8 5.5 3.9 11.7 -10.1 5.5 -10.9 5.1 -13.3 -3.9z"/>
  <path d="M3139.7 1842.7 c-4.3 -2.3 -16 -3.1 -28.5 -1.9 -25.7 2.7 -31.2 -4.3 -15.2 -19.9 9 -9.4 13.3 -10.5 35.5 -10.5 20.7 0 26.9 1.6 33.5 8.6 8.2 8.2 8.2 9 1.9 18.3 -7 10.9 -15.2 12.5 -27.3 5.5z"/>
  <path d="M853.5 1820.5 c0 -4.7 1.9 -8.2 3.9 -8.2 2.3 0 3.9 2.3 3.9 5.5 0 3.1 -1.6 7 -3.9 8.2 -1.9 1.2 -3.9 -1.2 -3.9 -5.5z"/>
  <path d="M1938.6 1822 c3.1 -3.1 7.8 -5.8 10.5 -5.8 2.7 0 1.6 2.3 -2.7 5.8 -9.7 7.4 -15.6 7.4 -7.8 0z"/>
  <path d="M865.2 1755.4 c0 -4.3 11.3 -13.3 16.4 -13.3 2.7 0 8.6 -3.5 12.1 -8.2 3.9 -4.3 8.2 -7 9.7 -5.8 1.2 1.6 -1.9 5.5 -7 9 -5.1 3.5 -12.5 9.7 -16.4 13.6 -6.6 6.6 -14.8 9.4 -14.8 4.7z"/>
  <path d="M4089.2 1663.4 c-2.7 -2.7 -4.7 -6.2 -4.7 -8.6 0 -1.9 -2.7 -6.6 -5.8 -10.1 -5.5 -5.8 -5.5 -7 0 -11.7 14 -11.7 44.8 -1.2 44.8 15.6 0 14.8 -23.8 25.3 -34.3 14.8z"/>
  <path d="M537.8 1564.8 c0 -7.4 1.6 -13.6 3.1 -13.6 1.6 0 2.3 6.2 1.6 13.6 -0.8 7.4 -2.3 13.6 -3.1 13.6 -0.8 0 -1.6 -6.2 -1.6 -13.6z"/>
  <path d="M3998 1567.9 c-3.5 -0.8 -14.4 -12.9 -24.2 -26.1 -68.6 -96.3 -169.5 -148.5 -284.9 -147.7 -44.4 0.4 -79.5 7.8 -121.6 24.9 -27.7 11.7 -80.3 47.2 -96.3 65.1 -7.4 8.6 -14 11.3 -14 5.5 0 -5.1 58.9 -62 81.8 -79.1 26.5 -19.9 91.6 -51.4 122.8 -60 13.3 -3.9 46 -7.4 76 -8.6 44.8 -1.6 57.7 -0.8 86.5 6.2 81.5 19.5 150.4 66.6 206.6 141.9 27.3 37 28.8 47.9 9.4 67.4 -12.9 12.9 -23.4 15.6 -42.1 10.5z"/>
  <path d="M5366.7 1524.3 c0 -29.2 4.7 -66.6 8.2 -66.6 1.9 0 2.3 10.5 0.8 23.4 -1.9 19.5 -1.2 23.4 3.1 21.4 4.7 -1.6 5.5 1.2 4.3 13.3 -0.8 9 -3.5 15.2 -5.8 14.4 -2.7 -0.8 -3.5 -0.4 -1.6 0.4 5.1 3.1 2.7 12.9 -3.1 12.9 -4.3 0 -5.8 -4.7 -5.8 -19.1z"/>
  <path d="M1748.4 1513 c-1.6 -5.1 -1.9 -10.1 -0.8 -11.3 3.9 -4.3 7 1.6 5.5 11.3 l-1.6 9 -3.1 -9z"/>
  <path d="M3314 1483.4 c1.2 -3.1 0.4 -6.6 -2.3 -7.8 -2.7 -0.8 -1.2 -1.9 3.1 -1.9 6.6 -0.4 6.6 -1.2 1.9 -4.3 -5.1 -3.1 -5.1 -3.9 0.8 -3.9 3.5 0 10.5 -5.5 15.2 -12.5 12.5 -17.1 14.4 -6.6 3.1 16.8 -5.8 13.3 -10.9 19.1 -16.4 19.1 -4.7 0 -6.6 -1.9 -5.5 -5.5z"/>
  <path d="M1198.5 1481 c4.3 -1.9 10.5 -3.5 13.6 -3.5 5.1 -0.4 5.1 0 0 3.5 -3.1 1.9 -9.4 3.5 -13.6 3.5 l-7.8 0 7.8 -3.5z"/>
  <path d="M1746.8 1470.5 c0.8 -3.5 3.1 -7 5.8 -7.8 2.7 -1.2 3.5 1.2 2.3 6.2 -2.3 9.7 -10.1 10.9 -8.2 1.6z"/>
  <path d="M4600.5 1453.3 c-10.1 -11.3 -35.9 -23 -51.4 -23 -9 0 -12.5 -1.6 -11.3 -4.7 1.2 -3.5 9.4 -5.1 24.9 -4.7 29.6 0.4 60.8 16.4 58.9 30 -1.6 11.7 -11.7 12.5 -21 2.3z"/>
  <path d="M4158.5 1434.6 c0 -9.7 12.9 -9.4 19.1 0.4 3.9 6.2 3.1 7 -7.4 7 -9 0 -11.7 -1.9 -11.7 -7.4z"/>
  <path d="M4137.5 1414.4 c-11.3 -11.3 -4.7 -12.9 7.8 -1.9 7.4 6.2 9.4 9.7 5.5 9.7 -3.1 0 -9.4 -3.5 -13.3 -7.8z"/>
  <path d="M3464.8 1294.3 c0 -2.3 2.3 -4.3 5.5 -4.3 3.1 0 6.2 -1.9 7 -4.3 0.8 -2.7 3.9 -3.9 6.2 -3.1 2.7 0.8 0 4.7 -7 8.6 -6.2 3.9 -11.7 5.1 -11.7 3.1z"/>
  <path d="M3511.6 1266.7 c0 -3.5 15.2 -9.7 17.9 -7 0.8 1.2 -2.7 3.9 -8.2 6.2 -5.5 2.3 -9.7 2.7 -9.7 0.8z"/>
  <path d="M3577.8 1239.8 c0 -3.9 19.5 -9.7 22.2 -7 0.8 1.2 -3.9 3.5 -10.1 5.8 -6.6 2.3 -12.1 2.7 -12.1 1.2z"/>
  <path d="M1851.3 1196.9 c0 -2.3 2.3 -4.3 5.5 -4.3 3.1 0 6.2 -1.9 7 -4.3 0.8 -2.7 3.9 -3.9 6.2 -3.1 2.7 0.8 0 4.7 -7 8.6 -6.2 3.9 -11.7 5.1 -11.7 3.1z"/>
  <path d="M4909.6 1138 c-1.2 -4.3 -0.4 -9 1.6 -10.1 1.9 -1.2 3.5 2.3 3.5 7.8 0 12.1 -2.3 13.3 -5.1 2.3z"/>
  <path d="M1879.7 1122.5 c-21.4 -8.6 -21.8 -32.7 -0.8 -72.9 33.5 -63.5 74.8 -111.5 150.8 -173.8 27.7 -23 52.6 -41.7 55.3 -41.7 2.7 0 -7 12.5 -21 27.7 -46 49.5 -91.6 129 -127.1 221 -15.6 40.9 -29.6 50.7 -57.3 39.8z"/>
  <path d="M4034.6 1074.9 c-13.6 -13.6 5.8 -38.6 20.7 -26.5 11.7 9.7 4.7 31.2 -9.7 31.2 -3.5 0 -8.2 -1.9 -10.9 -4.7z"/>
  <path d="M2517.7 988.8 c0 -10.5 15.6 -76 25.3 -106 46.8 -143 155.9 -272.4 279.8 -330.9 70.2 -33.1 122.4 -45.2 195.6 -44.8 83 0 135.6 13.3 214 53.4 52.6 27.3 64.7 37.8 64.7 56.9 0 16.4 -14 33.5 -27.3 33.5 -4.7 0 -15.6 -5.1 -24.6 -11.3 -124.3 -84.6 -276.3 -98.6 -407.7 -36.6 -126.7 60 -232.7 175.8 -288.8 315.7 -8.2 21 -17.5 46.4 -20.3 56.9 -4.3 17.1 -10.9 24.9 -10.9 13.3z"/>
  <path d="M3955.1 963.8 c-3.5 -3.9 -11.7 -18.3 -18.7 -32.3 -43.3 -86.5 -119.3 -159.8 -212 -205 -145.8 -70.9 -314.1 -54.2 -443.9 44.4 -26.1 19.9 -35.5 18.7 -12.5 -1.2 71.7 -61.6 159.4 -103.7 253.3 -121.2 41.7 -7.4 124.3 -5.8 167.6 3.9 74.4 16.8 146.2 55 202.7 108.3 41.7 39.4 60 62 88.5 110.3 35.1 59.2 37.4 69.4 19.1 88.1 -13.6 13.3 -34.7 15.6 -44 4.7z"/>
  <path d="M4700.3 823.9 c-51.1 -21 -86.9 -29.6 -135.2 -31.6 -51.4 -2.7 -89.3 2.7 -138.7 18.7 -19.1 6.2 -36.6 11.3 -39 11.3 -6.2 -0.4 22.2 -25.3 46 -40.5 25.3 -16 68.2 -35.1 95.5 -41.7 13.3 -3.5 42.5 -5.5 76 -5.5 62.4 0 103.3 8.6 144.2 30.4 23 12.1 23.4 12.9 24.6 30 0.8 15.2 -0.4 19.1 -9.7 28.1 -16.8 16 -26.5 16.4 -63.5 0.8z"/>
 </g>
 <g fill="#97c3d2">
  <path d="M2529.4 2319 c-121.2 -14.8 -237.7 -57.3 -318.4 -116.1 l-28.1 -20.7 -18.7 9.4 c-54.2 27.7 -131 45.6 -194.5 45.6 -95.5 0 -168 -35.1 -202.3 -97.8 -12.5 -23 -18.7 -42.5 -13.3 -42.5 1.9 0 3.5 1.6 3.5 3.5 0 1.6 9.7 14 21.8 27.3 39 42.5 102.1 66.3 175.4 66.6 60.8 0 134.9 -17.5 189.4 -45.2 10.1 -5.1 21.8 -9.4 25.7 -9.4 11.7 0 21.4 13.6 19.5 26.5 l-1.6 11.7 77.9 24.2 c85.7 26.9 176.9 51.1 228.4 60.8 44.8 8.6 181.6 11.7 234.2 5.5 101.7 -11.7 229.9 -48.7 329.7 -95.5 31.2 -14.8 39.8 -16.4 47.2 -9 8.2 8.2 5.5 21.8 -6.2 30 -12.5 8.6 -91.6 49.9 -116.5 60 -54.6 23 -136.4 46 -205.8 57.7 -53.4 9.4 -197.6 13.3 -247.5 7.4z"/>
  <path d="M4092.3 2299.1 c-80.7 -6.6 -166.4 -24.2 -239.7 -48.7 -53 -17.9 -153.6 -65.1 -159 -74.4 -1.9 -2.7 -4.7 -4.3 -7 -3.1 -1.9 1.6 -3.5 0.4 -3.5 -1.6 0 -2.3 -9.7 -10.9 -21.8 -18.7 -25.3 -16.8 -22.6 -21.4 5.1 -7.8 62.4 31.6 159 64.7 235 80.3 129.8 27.3 287.2 30.4 495 9.7 33.1 -3.1 62.7 -6.6 65.1 -7.4 3.9 -1.2 3.1 -6.2 -2.3 -20.3 -16.4 -41.7 -13.6 -87.7 7.4 -132.9 21.8 -47.2 58.1 -80.7 119.7 -112.6 49.1 -24.9 65.1 -22.2 26.1 4.7 -33.1 23 -76.8 72.1 -92.8 104.5 -17.9 37.4 -23 65.1 -16.4 93.5 5.8 24.9 11.3 34.7 33.5 57.7 11.7 12.5 15.6 19.5 15.6 29.2 0 16.8 -16 30.4 -33.1 27.7 -6.2 -1.2 -44.8 1.9 -85.7 7.4 -130.6 16.4 -243.2 20.7 -341 12.9z"/>
  <path d="M4957.5 2095.6 c0 -0.4 20.3 -14 44.8 -30 24.6 -16 44.8 -31.2 44.8 -33.5 0 -2.3 13.6 -14.8 30.4 -27.7 36.2 -28.8 101.7 -94.3 131.3 -131.7 90.8 -113.4 140.3 -254.9 147.3 -419 0.8 -19.9 1.6 -21.4 10.5 -21.4 l9.7 0 -1.2 36.2 c-0.8 22.6 0.4 35.9 3.1 35.9 1.9 0 3.9 5.5 3.9 11.7 0 8.6 -1.9 11.7 -6.6 11.7 -5.8 0 -5.8 0.8 -1.6 3.5 4.7 3.1 3.5 13.3 -7 66.3 -27.3 138.7 -76.4 248.7 -152.4 341.4 -36.6 44.4 -86.9 85.7 -139.9 115 -34.3 18.7 -117.3 48.3 -117.3 41.7z"/>
  <path d="M2999.8 1880.1 c-5.5 -5.5 -2.3 -43.7 5.1 -66.3 15.6 -44.8 52.6 -80.3 102.5 -97.8 36.6 -12.9 104.8 -8.6 145.4 9 3.1 1.2 5.1 -14.8 6.2 -53.8 2.3 -65.1 10.1 -93.5 44 -165.2 17.1 -36.6 25.3 -48.7 50.7 -75.2 32 -33.5 43.3 -39.8 20.7 -11.3 -72.9 90.4 -100.9 212 -74.8 327.8 6.2 28.8 6.2 30.4 -0.4 37.8 -9.4 10.5 -14 10.1 -46.4 -5.8 -56.5 -27.7 -115 -34.3 -162.5 -18.3 -44.8 15.2 -72.5 48.3 -83 98.2 -2.3 13.3 -5.8 22.6 -7.4 21z"/>
  <path d="M1903.5 1868 c-2.3 -3.9 -14 -18.3 -25.7 -32.3 -20.7 -24.6 -45.2 -74.8 -41.3 -85.7 0.8 -2.7 8.2 6.2 16.8 19.9 16.4 27.3 58.5 73.7 66.6 73.7 7.4 0 11.3 23.4 5.1 27.7 -8.6 5.5 -16.8 3.9 -21.4 -3.1z"/>
  <path d="M4268.8 1636.1 c-2.3 -2.7 -5.8 -13.6 -8.6 -24.2 -13.6 -55.3 -57.3 -126.7 -116.9 -190.2 -7.4 -8.2 -12.5 -15.6 -11.3 -16.8 7 -7 90.8 74.4 118.1 115 l13.3 19.9 9 -20.7 c22.2 -51.8 58.9 -106 92.8 -136.4 43.7 -39.4 108.3 -71.3 159.8 -78.7 17.1 -2.7 17.1 -2.3 -7.8 7.8 -61.6 25.3 -129 82.2 -168.4 142.3 -20.7 31.2 -46.4 86.1 -52.2 110.7 -1.6 6.6 -4.3 14 -6.2 16.4 -2.3 2.7 -2.7 14.8 -1.2 28.8 2.3 18.3 1.6 24.6 -2.3 27.3 -7.8 4.7 -13.6 4.3 -17.9 -1.2z"/>
 </g>
</svg>