<?xml version="1.0" encoding="utf-8"?>
<!DOCTYPE svg PUBLIC "-//W3C//DTD SVG 20010904//EN" "http://www.w3.org/TR/2001/REC-SVG-20010904/DTD/svg10.dtd">
<svg version="1.0" xmlns="http://www.w3.org/2000/svg" width="2129px" height="1185px" viewBox="0 0 2129 1185" preserveAspectRatio="xMidYMid meet">
 <g fill="#7bdaef">
  <path d="M1033 824.5 l-177.5 -177.6 6.9 -6.6 c3.7 -3.7 12.7 -12.8 19.9 -20.3 7.9 -8.1 5.3 -5.7 -6.6 6 -16.6 16.4 -19.7 19.1 -19.7 16.9 0 -2.9 7.5 -10.9 10.3 -10.9 0.9 0 1.7 -0.8 1.7 -1.7 0 -2.1 111.7 -114.5 150.1 -151 7.6 -7.3 9.1 -8.4 10.5 -7.2 1.3 1.1 13.9 -11.1 92.6 -89.9 50.2 -50.2 91.5 -91.2 91.9 -91.2 1.2 0 2.3 175 1 176.3 -0.8 0.8 -1.1 0.6 -1.1 -0.8 0 -1 -0.3 -1.5 -0.7 -1.1 -0.5 0.4 -1 121.3 -1.3 268.7 l-0.5 267.9 -177.5 -177.5z"/>
  <path d="M851.8 501.9 c-1.8 -1 -24.7 -10.6 -43.2 -18.1 -5.5 -2.2 -12.5 -5.2 -15.5 -6.7 -3.1 -1.6 -13.5 -6.1 -23.1 -10.1 -9.6 -4 -22.7 -9.5 -29 -12.2 -6.3 -2.8 -25 -10.7 -41.5 -17.8 -16.5 -7 -35.2 -15 -41.5 -17.8 -6.3 -2.7 -18 -7.7 -25.9 -11 l-14.4 -6 5.2 -2.6 c2.8 -1.5 10.2 -4.7 16.4 -7.2 21.8 -9 42.3 -17.6 48.2 -20.5 3.3 -1.6 18.8 -8.3 34.5 -14.8 15.7 -6.6 34.1 -14.4 41 -17.4 6.9 -3 20.4 -8.7 30 -12.7 9.6 -4 19.6 -8.3 22.2 -9.6 4.6 -2.3 38.4 -16.4 39.3 -16.4 0.3 0 0.5 45.5 0.5 101 0 55.6 -0.3 101 -0.7 101 -0.5 0 -1.6 -0.5 -2.5 -1.1z"/>
 </g>
 <g fill="#4a90b5">
  <path d="M856 473.1 l0 -172.4 71.8 71.5 c39.4 39.4 78.5 78.3 86.8 86.5 l15.2 14.9 -32.1 31.4 c-17.6 17.3 -47.9 47.3 -67.2 66.5 -19.4 19.3 -44.1 43.8 -54.9 54.5 l-19.6 19.5 0 -172.4z"/>
  <path d="M1212.2 439.4 c-0.7 -61 -1.2 -119.3 -1.2 -129.5 l0 -18.6 5.8 -1.6 c3.1 -0.8 30.9 -6.5 61.7 -12.6 30.8 -6.1 59.8 -12 64.5 -13.1 7 -1.7 121.8 -25 122.8 -25 0.2 0 -1.3 1.9 -3.3 4.3 -2 2.3 -9.6 11.6 -17 20.7 -7.3 9.1 -19.8 24.4 -27.7 34.1 -7.9 9.7 -18.9 23.5 -24.6 30.5 -5.6 7.1 -12.1 15.1 -14.5 17.8 -2.3 2.8 -7.2 8.8 -11 13.5 -3.7 4.7 -10.3 12.9 -14.6 18.1 -4.4 5.2 -9.7 11.7 -11.8 14.5 -2.1 2.7 -7.1 9 -11.1 14 -18.9 23.1 -36.8 45.2 -47 58 -6.1 7.7 -13.1 16.3 -15.5 19 -2.4 2.8 -8.6 10.4 -13.7 17 -5.1 6.6 -11 13.8 -13 16 -2.1 2.2 -7.6 9 -12.3 15 -4.6 6.1 -10 12.8 -11.9 14.9 l-3.4 3.9 -1.2 -110.9z"/>
 </g>
</svg>